<?xml version="1.0" encoding="utf-8"?>
<!-- Generator: Adobe Illustrator 22.0.1, SVG Export Plug-In . SVG Version: 6.00 Build 0)  -->
<svg version="1.1" id="Layer_1" xmlns="http://www.w3.org/2000/svg" xmlns:xlink="http://www.w3.org/1999/xlink" x="0px" y="0px"
	 viewBox="0 0 1080 1080" style="enable-background:new 0 0 1080 1080;" xml:space="preserve">
<style type="text/css">
	.st0{fill:#FFF7E9;}
</style>
<path class="st0" d="M540,1080c-72.9,0-143.6-14.3-210.2-42.4c-64.3-27.2-122.1-66.1-171.6-115.7c-49.6-49.6-88.5-107.3-115.7-171.6
	C14.3,683.6,0,612.9,0,540c0-72.9,14.3-143.6,42.4-210.2c27.2-64.3,66.1-122.1,115.7-171.6c49.6-49.6,107.3-88.5,171.6-115.7
	C396.4,14.3,467.1,0,540,0c72.9,0,143.6,14.3,210.2,42.4c64.3,27.2,122.1,66.1,171.6,115.7c49.6,49.6,88.5,107.3,115.7,171.6
	c28.2,66.6,42.4,137.3,42.4,210.2c0,72.9-14.3,143.6-42.4,210.2c-27.2,64.3-66.1,122.1-115.7,171.6
	c-49.6,49.6-107.3,88.5-171.6,115.7C683.6,1065.7,612.9,1080,540,1080z M540,25.1c-69.5,0-136.9,13.6-200.4,40.5
	c-61.3,25.9-116.4,63.1-163.7,110.3c-47.3,47.3-84.4,102.4-110.3,163.7C38.7,403.1,25.1,470.5,25.1,540
	c0,69.5,13.6,136.9,40.5,200.4c25.9,61.3,63.1,116.4,110.3,163.7c47.3,47.3,102.4,84.4,163.7,110.3c63.5,26.8,130.9,40.5,200.4,40.5
	c69.5,0,136.9-13.6,200.4-40.5c61.3-25.9,116.4-63.1,163.7-110.3c47.3-47.3,84.4-102.4,110.3-163.7c26.8-63.5,40.5-130.9,40.5-200.4
	c0-69.5-13.6-136.9-40.5-200.4c-25.9-61.3-63.1-116.4-110.3-163.7c-47.3-47.3-102.4-84.4-163.7-110.3
	C676.9,38.7,609.5,25.1,540,25.1z"/>
<polygon class="st0" points="673.5,286.2 559.9,408.3 559.9,73.2 520.1,73.2 520.1,408.4 406.5,286.2 377.4,313.3 540,488.1 
	702.6,313.3 "/>
<polygon class="st0" points="406.5,793.8 520.1,671.7 520.1,1006.8 559.9,1006.8 559.9,671.6 673.5,793.8 702.6,766.7 540,591.9 
	377.4,766.7 "/>
<rect x="174.8" y="521.2" class="st0" width="730.4" height="37.7"/>
</svg>
